<svg xmlns="http://www.w3.org/2000/svg" viewBox="0 0 60 40">
  <rect width="60" height="40" fill="#0f0e0b"/>
  <g fill="#2f7d4e" transform="translate(2,4)">
    <path d="M0 0 h4 v22 a6 6 0 0 1 -6 6 h-2 v-4 h2 a2 2 0 0 0 2 -2 z"/>
    <path d="M14 0 h4 v32 h-4 z" transform="translate(2,0)"/>
    <path d="M18 0 h4 a10 16 0 0 1 0 32 h-4 v-4 h4 a6 12 0 0 0 0 -24 h-4 z" transform="translate(2,0)"/>
    <path d="M46 16 v12 h-4 v-8 h-6 v-4 z" transform="translate(-4,0)"/>
    <path d="M46 0 a16 16 0 0 0 0 32 v-4 a12 12 0 1 1 0 -24 v-4 z" transform="translate(-12,0)"/>
  </g>
</svg>
